HIERARCHY
ROOT Hips
{
	OFFSET 0.000000 0.000000 0.000000
	CHANNELS 6 Xposition Yposition Zposition Zrotation Xrotation Yrotation
	JOINT RightUpLeg
	{
		OFFSET -10.032200 0.000000 0.000000
		CHANNELS 3 Zrotation Xrotation Yrotation
		JOINT RightLeg
		{
			OFFSET 0.000000 -40.977000 0.000000
			CHANNELS 3 Zrotation Xrotation Yrotation
			JOINT RightFoot
			{
				OFFSET 0.000000 -38.933200 0.000000
				CHANNELS 3 Zrotation Xrotation Yrotation
				JOINT RightToe
				{
					OFFSET 0.000000 -1.977400 9.184000
					CHANNELS 3 Zrotation Xrotation Yrotation
					JOINT RightToeEnd
					{
						OFFSET 0.000000 2.335600 6.099100
						CHANNELS 3 Zrotation Xrotation Yrotation
						End Site
						{
						    OFFSET 0.000000 1.788000 4.669400
						}
					}
				}
			}
		}
	}
	JOINT LeftUpLeg
	{
		OFFSET 10.032200 0.000000 0.000000
		CHANNELS 3 Zrotation Xrotation Yrotation
		JOINT LeftLeg
		{
			OFFSET 0.000000 -40.977000 0.000000
			CHANNELS 3 Zrotation Xrotation Yrotation
			JOINT LeftFoot
			{
				OFFSET 0.000000 -38.933200 0.000000
				CHANNELS 3 Zrotation Xrotation Yrotation
				JOINT LeftToe
				{
					OFFSET 0.000000 -1.977400 9.184000
					CHANNELS 3 Zrotation Xrotation Yrotation
					JOINT LeftToeEnd
					{
						OFFSET 0.000000 2.335600 6.099100
						CHANNELS 3 Zrotation Xrotation Yrotation
						End Site
						{
						    OFFSET 0.000000 1.788000 4.669400
						}
					}
				}
			}
		}
	}
	JOINT Spine
	{
		OFFSET 0.000000 16.960900 0.000000
		CHANNELS 3 Zrotation Xrotation Yrotation
		JOINT Spine1
		{
			OFFSET 0.000000 13.413900 0.000000
			CHANNELS 3 Zrotation Xrotation Yrotation
			JOINT Spine2
			{
				OFFSET 0.000000 10.384400 0.000000
				CHANNELS 3 Zrotation Xrotation Yrotation
				JOINT LeftShoulder
				{
					OFFSET 2.000000 10.384400 0.000000
					CHANNELS 3 Zrotation Xrotation Yrotation
					JOINT LeftArm
					{
						OFFSET 15.649100 0.000000 0.000000
						CHANNELS 3 Zrotation Xrotation Yrotation
						JOINT LeftForeArm
						{
							OFFSET 0.000000 -26.641600 0.000000
							CHANNELS 3 Zrotation Xrotation Yrotation
							JOINT LeftHand
							{
								OFFSET 0.000000 -23.740600 0.000000
								CHANNELS 3 Zrotation Xrotation Yrotation
								JOINT LeftFinger0
								{
									OFFSET 0.000000 -7.620900 0.000000
									CHANNELS 3 Zrotation Xrotation Yrotation
									End Site
									{
									    OFFSET 0.000000 -5.000000 0.000000
									}
								}
							}
						}
					}
				}
				JOINT RightShoulder
				{
					OFFSET -2.000000 10.384400 0.000000
					CHANNELS 3 Zrotation Xrotation Yrotation
					JOINT RightArm
					{
						OFFSET -15.649100 0.000000 0.000000
						CHANNELS 3 Zrotation Xrotation Yrotation
						JOINT RightForeArm
						{
							OFFSET 0.000000 -26.641600 0.000000
							CHANNELS 3 Zrotation Xrotation Yrotation
							JOINT RightHand
							{
								OFFSET 0.000000 -23.740600 0.000000
								CHANNELS 3 Zrotation Xrotation Yrotation
								JOINT RightFinger0
								{
									OFFSET 0.000000 -7.620900 0.000000
									CHANNELS 3 Zrotation Xrotation Yrotation
									End Site
									{
									    OFFSET 0.000000 -5.000000 0.000000
									}
								}
							}
						}
					}
				}
				JOINT Neck
				{
					OFFSET 0.000000 10.384400 0.000000
					CHANNELS 3 Zrotation Xrotation Yrotation
					JOINT Head
					{
						OFFSET 0.000000 10.146900 0.000000
						CHANNELS 3 Zrotation Xrotation Yrotation
						JOINT HeadTip
						{
							OFFSET 0.000000 10.000000 0.000000
							CHANNELS 3 Zrotation Xrotation Yrotation
							End Site
							{
							    OFFSET 0.000000 5.000000 0.000000
							}
						}
					}
				}
			}
		}
	}
}
MOTION
Frames:	7
Frame Time:	0.033332
-161.327300 86.788400 -14.011000 -0.331065 -1.001931 -3.849498 -1.049437 -2.897864 -24.681047 0.000000 8.170404 -0.000000 5.046828 13.811943 -1.049429 -0.000000 0.818741 -0.000000 0.000000 0.000000 -0.000000 1.135537 -3.655586 28.748042 -0.000000 9.701137 -0.000000 0.966206 13.876589 -9.851086 0.000000 -1.655772 -0.000000 0.000000 -0.000000 0.000000 1.197361 -0.099378 2.262707 0.000000 1.539374 0.000000 -0.000000 -0.000000 -0.000000 1.847594 0.000000 5.708290 88.240515 -8.216650 17.271036 -0.000000 -11.608045 -0.000000 3.766761 9.935138 -14.532638 0.000000 0.000000 -0.000000 -4.523429 -0.000000 -5.064127 -87.857714 -12.637178 -13.687093 -0.000020 -7.462816 -0.000001 -4.103890 16.487560 24.596372 -0.000000 -0.000000 -0.000000 -0.000000 -0.000000 -0.000000 -3.881764 3.650328 1.762003 0.000000 -0.000000 -0.000000 
-161.333400 86.792700 -14.018500 -0.332973 -0.982811 -3.839832 -1.041598 -2.919279 -24.698207 0.000000 8.167427 -0.000000 5.032385 13.823909 -1.039650 0.000000 0.853134 -0.000000 0.000000 0.000000 -0.000000 1.137907 -3.667671 28.780968 0.000000 9.672707 -0.000000 1.030229 13.902361 -9.895113 0.000000 -1.645046 -0.000000 -0.000000 0.000000 -0.000000 1.191902 -0.089746 2.253801 -0.000000 1.538368 -0.000000 -0.000000 0.000000 -0.000000 1.826511 -0.000000 5.658367 88.182907 -8.154101 17.160903 -0.000000 -11.666480 -0.000000 3.738537 9.958860 -14.539201 -0.000000 0.000000 0.000000 -4.555521 -0.000000 -5.061657 -87.847573 -12.590999 -13.717215 -0.000020 -7.487230 -0.000001 -3.965734 16.440364 24.584074 -0.000000 0.000000 -0.000000 -0.000000 0.000000 -0.000000 -3.820254 3.524667 1.678125 0.000000 0.000000 -0.000000 
-161.339500 86.797100 -14.024300 -0.331605 -0.967763 -3.849963 -1.036242 -2.934730 -24.711652 -0.000000 8.155948 -0.000000 5.020261 13.847740 -1.022603 0.000000 0.853917 -0.000000 0.000000 0.000000 0.000000 1.139871 -3.685161 28.733869 -0.000000 9.665037 -0.000000 1.077174 13.952072 -9.840002 0.000000 -1.783100 -0.000000 -0.000000 0.000000 0.000000 1.178377 -0.080763 2.254535 0.000000 1.519332 -0.000000 -0.000000 0.000000 0.000000 1.818954 0.000000 5.585061 88.132051 -8.086609 17.167509 -0.000000 -11.654697 -0.000000 3.748617 9.893678 -14.607462 -0.000000 -0.000000 0.000000 -4.573693 -0.000000 -5.040307 -87.822694 -12.544168 -13.769568 -0.000020 -7.515546 -0.000001 -4.041639 16.458314 24.590280 -0.000000 0.000000 -0.000000 -0.000000 0.000000 0.000000 -3.771265 3.434453 1.702261 -0.000000 0.000000 0.000000 
-161.350200 86.802200 -14.028100 -0.330680 -0.951755 -3.862655 -1.027001 -2.946749 -24.723122 -0.000000 8.139897 -0.000000 5.011283 13.870443 -1.001750 -0.000000 0.858460 -0.000000 -0.000000 -0.000000 -0.000000 1.148010 -3.689576 28.816163 -0.000000 9.647964 -0.000000 1.022676 13.942028 -9.900403 -0.000000 -1.642485 -0.000000 -0.000000 0.000000 -0.000000 1.157434 -0.082938 2.235663 0.000000 1.504706 -0.000000 0.000000 0.000000 -0.000000 1.826163 0.000000 5.551611 88.096655 -8.028224 17.023318 0.000000 -11.687931 0.000000 3.741373 9.929911 -14.601772 0.000000 0.000000 -0.000000 -4.573518 -0.000000 -5.018192 -87.814253 -12.543287 -13.860857 -0.000020 -7.517537 -0.000001 -3.937576 16.510378 24.547484 -0.000000 -0.000000 -0.000000 0.000000 0.000000 -0.000000 -3.732180 3.452992 1.690869 -0.000000 0.000000 0.000000 
-161.360000 86.806400 -14.027800 -0.330042 -0.950546 -3.900507 -1.024134 -2.957020 -24.718316 -0.000000 8.150260 -0.000000 5.010092 13.872377 -0.975388 0.000000 0.901880 -0.000000 0.000000 0.000000 -0.000000 1.153297 -3.682681 28.821869 -0.000000 9.634659 0.000000 1.013030 13.962096 -9.878460 -0.000000 -1.656051 -0.000000 0.000000 0.000000 -0.000000 1.137322 -0.079096 2.226395 -0.000000 1.506819 0.000000 -0.000000 0.000000 -0.000000 1.846330 -0.000000 5.554609 88.051399 -7.931432 16.866833 -0.000000 -11.831204 -0.000000 3.482513 9.848217 -14.634146 -0.000000 0.000000 -0.000000 -4.576428 0.000000 -5.030951 -87.791810 -12.612073 -13.834583 -0.000020 -7.486129 -0.000001 -3.936541 16.530338 24.475687 -0.000000 0.000000 -0.000000 -0.000000 0.000000 -0.000000 -3.745598 3.483358 1.696572 -0.000000 0.000000 0.000000 
-161.368500 86.807900 -14.024800 -0.335897 -0.953655 -3.963252 -1.013182 -2.957405 -24.690582 0.000000 8.148189 -0.000000 4.999492 13.893150 -0.932726 0.000000 0.891148 0.000000 0.000000 -0.000000 -0.000000 1.164617 -3.670712 28.852998 0.000000 9.637629 -0.000000 1.004290 13.964486 -9.846922 0.000000 -1.677696 0.000000 0.000000 -0.000000 -0.000000 1.134133 -0.077549 2.229294 -0.000000 1.513344 -0.000000 -0.000000 0.000000 -0.000000 1.870902 0.000000 5.566767 87.963055 -7.816820 16.930460 -0.000000 -11.964693 -0.000000 3.452076 9.746045 -14.654076 0.000000 0.000000 -0.000000 -4.624955 -0.000000 -5.024982 -87.711786 -12.644768 -13.831382 -0.000020 -7.499219 -0.000001 -3.916562 16.506156 24.467792 0.000000 0.000000 0.000000 -0.000000 0.000000 -0.000000 -3.780033 3.547005 1.780405 -0.000000 -0.000000 -0.000000 
-161.377600 86.809700 -14.018600 -0.337208 -0.956557 -4.048304 -1.006904 -2.963940 -24.640187 -0.000000 8.155472 0.000000 5.001792 13.904389 -0.893579 -0.000000 0.898247 0.000000 0.000000 0.000000 -0.000000 1.172415 -3.652626 28.902205 -0.000000 9.638075 -0.000000 0.937838 13.937619 -9.806808 0.000000 -1.594257 -0.000000 0.000000 -0.000000 -0.000000 1.123703 -0.078019 2.263750 0.000000 1.518383 -0.000000 0.000000 -0.000000 0.000000 1.891378 -0.000000 5.610754 87.931214 -7.769737 16.843377 0.000000 -11.996718 0.000000 3.445069 9.749056 -14.754753 0.000000 0.000000 0.000000 -4.667917 -0.000000 -5.028562 -87.636965 -12.653675 -13.815564 -0.000020 -7.524371 -0.000001 -3.861678 16.531578 24.507250 -0.000000 0.000000 0.000000 0.000000 -0.000000 0.000000 -3.867827 3.709436 1.746479 -0.000000 0.000000 -0.000000 
